<svg xmlns="http://www.w3.org/2000/svg" viewBox="0 0 64 64" fill="none">
  <defs>
    <linearGradient id="flame" x1="32" y1="8" x2="32" y2="56" gradientUnits="userSpaceOnUse">
      <stop offset="0%" stop-color="#fde68a"/>
      <stop offset="55%" stop-color="#fbbf24"/>
      <stop offset="100%" stop-color="#d97706"/>
    </linearGradient>
  </defs>
  <!-- Flame -->
  <path d="M32 6c2 7 9 11 9 19 0 5-3 8-3 12 0 3 2 5 4 7-3 2-7 3-10 3s-7-1-10-3c2-2 4-4 4-7 0-4-3-7-3-12 0-8 7-12 9-19z" fill="url(#flame)"/>
  <!-- Lamp base -->
  <rect x="20" y="48" width="24" height="6" rx="2" fill="#0f172a"/>
  <rect x="24" y="54" width="16" height="4" rx="1.5" fill="#0f172a"/>
</svg>
